<svg width="72" height="72" viewBox="0 0 72 72" fill="none" xmlns="http://www.w3.org/2000/svg">
    <g clip-path="url(#joccis7l3a)">
        <rect width="72" height="72" rx="36" fill="#F4D979"/>
        <path d="M59.215 29.64c.875 6.553-7.752 17.014-19.9 18.636-12.149 1.622-22.936-4.092-24.094-12.762-1.157-8.67 7.752-17.014 19.9-18.636 12.149-1.623 23.452 7.96 24.093 12.761z" fill="#AF8039"/>
        <ellipse cx="27.95" cy="23.342" rx="9.575" ry="10.47" transform="rotate(-7.606 27.95 23.342)" fill="#AF8039"/>
        <ellipse cx="41.745" cy="20.507" rx="6.085" ry="6.622" transform="rotate(-7.606 41.745 20.507)" fill="#AF8039"/>
        <ellipse cx="27.962" cy="23.431" rx="5.816" ry="5.727" transform="rotate(-7.606 27.962 23.43)" fill="#fff"/>
        <path d="M8.224 46.401c3.764-5.932 3.585-11.793 7.636-16.552l26.271 11.516c-.706 11.516 14.34 14.5 5.062 26.904-6.336 8.471-19.334 8.434-31.332 3.307C5.672 67.222 3.519 53.816 8.224 46.4z" fill="#AF8039"/>
        <path fill-rule="evenodd" clip-rule="evenodd" d="M27.265 22.981c-.976.442-1.713 1.203-2.313 1.967a1.21 1.21 0 1 1-1.904-1.493c.692-.883 1.72-2 3.219-2.678 1.539-.698 3.448-.878 5.778-.104a1.21 1.21 0 1 1-.763 2.297c-1.803-.6-3.08-.413-4.017.011z" fill="#AF8039"/>
        <path d="M38.837 33.003c10.004-3.702 16.03-2.88 17.633-2.014 0 3.776-7.664 12.672-16.283 14.683-7.817 1.824-20.588-10.068-14.428-10.656 1.931-.184 5.821.672 13.078-2.013z" fill="#fff"/>
        <path d="M20.572 54.353c.874-4.042 6.865-10.733 4.177-16.437l14.606 7.664 2.09 2.924 4.438 6.857c1.702 4.189-.88 11.093-9.782 11.093-3.53 0-17.053-5.06-15.53-12.101z" fill="#fff"/>
        <path fill-rule="evenodd" clip-rule="evenodd" d="M36 68.571c17.989 0 32.571-14.582 32.571-32.571C68.571 18.011 53.99 3.429 36 3.429 18.011 3.429 3.429 18.01 3.429 36 3.429 53.989 18.01 68.571 36 68.571zM36 72c19.882 0 36-16.118 36-36S55.882 0 36 0 0 16.118 0 36s16.118 36 36 36z" fill="#F4D979"/>
        <path d="m64.538 36.1 1.1 2.722 2.928.205-2.248 1.888.71 2.848-2.49-1.555-2.49 1.555.71-2.848-2.248-1.888 2.928-.205 1.1-2.721zM55.059 46.185l1.362 3.368 3.625.255-2.783 2.337.878 3.526-3.082-1.925-3.082 1.925.878-3.526-2.783-2.337 3.625-.255 1.362-3.368zM37.412 51.429l1.703 4.21 4.53.319-3.478 2.92 1.097 4.408-3.852-2.406-3.853 2.406 1.098-4.408-3.479-2.92 4.53-.319 1.704-4.21z" fill="#AF8039"/>
    </g>
    <defs>
        <clipPath id="joccis7l3a">
            <rect width="72" height="72" rx="36" fill="#fff"/>
        </clipPath>
    </defs>
</svg>
